<svg width="46" height="46" fill="none" xmlns="http://www.w3.org/2000/svg"><path fill-rule="evenodd" clip-rule="evenodd" d="M9 .6a2.8 2.8 0 012.8 2.8v2.8h2.8a2.8 2.8 0 110 5.6h-2.8v2.8a2.8 2.8 0 11-5.6 0v-2.8H3.4a2.8 2.8 0 010-5.6h2.8V3.4A2.8 2.8 0 019 .6zm0 28a2.8 2.8 0 012.8 2.8v2.8h2.8a2.8 2.8 0 110 5.6h-2.8v2.8a2.8 2.8 0 11-5.6 0v-2.8H3.4a2.8 2.8 0 110-5.6h2.8v-2.8A2.8 2.8 0 019 28.6zM28.6.6a2.8 2.8 0 012.707 2.083l3.302 12.474 9.39 5.418a2.8 2.8 0 010 4.85l-9.39 5.418-3.302 12.473a2.8 2.8 0 01-5.414 0l-3.302-12.473-9.39-5.418a2.8 2.8 0 010-4.85l9.39-5.418 3.302-12.474A2.8 2.8 0 0128.6.6z" fill="#FF7500"/></svg>